#!OML:ASF F:\VICON\USERDATA\INSTALL\rory3\rory3.ASF
:FULLY-SPECIFIED
:DEGREES
2271
root -0.345778 14.8048 19.963 847.405 37.1073 145.193
lowerback -17.639 -11.4869 11.7008
upperback -12.5888 -15.441 3.07771
thorax -6.50099 -8.12305 -4.3887
lowerneck -10.9312 -11.0773 -0.97947
upperneck 25.3458 -14.6384 -1.68252
head 9.75188 -6.72285 -2.03491
rclavicle -3.18055e-014 -9.54166e-015
rhumerus -8.9259 -42.6966 13.9316
rradius 50.9156
rwrist -8.18652
rhand -19.0654 -47.6936
rfingers 7.12502
rthumb -172.758 462.45
lclavicle -3.18055e-014 -9.54166e-015
lhumerus 2.23259 12.0471 13.7689
lradius 25.4875
lwrist 47.4735
lhand -34.0501 -11.5838
lfingers 7.12502
lthumb -7.2279 18.2728
rfemur -40.9711 -3.94383 37.9261
rtibia 49.0142
rfoot 8.32047 -21.0694
rtoes 19.3709
lfemur 4.25258 32.6948 -1.94253
ltibia 88.1693
lfoot -5.44699 2.94327
ltoes -10.5807
2272
root -0.376479 14.7933 20.003 848.059 36.673 145.664
lowerback -17.5176 -11.553 11.4708
upperback -12.5702 -15.467 3.35586
thorax -6.38621 -8.08978 -3.98638
lowerneck -11.8097 -10.8134 -0.639342
upperneck 26.4321 -14.0547 -2.92779
head 10.176 -6.52557 -2.5388
rclavicle -9.22361e-014 -9.54166e-015
rhumerus -8.82716 -42.8752 13.9413
rradius 51.5266
rwrist -7.94294
rhand -19.0855 -49.4106
rfingers 7.12502
rthumb -172.777 460.733
lclavicle -9.22361e-014 -9.54166e-015
lhumerus 2.35359 12.0496 14.2201
lradius 25.4178
lwrist 47.4498
lhand -34.7871 -11.2843
lfingers 7.12502
lthumb -7.93926 18.5466
rfemur -41.2405 -3.71329 37.8518
rtibia 49.1887
rfoot 8.81678 -21.1172
rtoes 17.9368
lfemur 3.91064 32.9205 -1.81401
ltibia 88.56
lfoot -5.56065 3.22576
ltoes -9.54763
2273
root -0.400939 14.8058 20.0465 848.525 36.0844 145.981
lowerback -17.366 -11.7231 10.952
upperback -12.5415 -15.5941 3.74505
thorax -6.16589 -8.07947 -3.34512
lowerneck -12.7154 -10.4724 -0.437271
upperneck 27.5618 -13.2854 -4.24872
head 10.6497 -6.27425 -3.04325
rclavicle -1.62208e-013 5.40694e-014
rhumerus -8.20663 -43.3374 13.6718
rradius 52.0028
rwrist -7.56504
rhand -21.2749 -49.6312
rfingers 7.12502
rthumb -174.891 460.45
lclavicle -1.62208e-013 5.40694e-014
lhumerus 2.1965 12.8775 14.796
lradius 25.2074
lwrist 47.2574
lhand -34.107 -12.0665
lfingers 7.12502
lthumb -7.28283 17.7882
rfemur -41.4063 -3.73282 37.5267
rtibia 49.4197
rfoot 8.6716 -21.182
rtoes 17.7131
lfemur 3.73202 32.929 -2.14814
ltibia 88.7393
lfoot -5.76118 3.73149
ltoes -8.71369
2274
root -0.423287 14.8257 20.0907 848.463 34.8161 145.646
lowerback -17.2377 -11.7367 9.94728
upperback -12.4691 -15.5253 3.50433
thorax -5.89954 -7.99605 -3.1225
lowerneck -12.5875 -10.2563 -0.649807
upperneck 27.3956 -12.9222 -4.2213
head 10.5923 -6.13494 -2.94351
rclavicle -1.97194e-013 1.27222e-014
rhumerus -8.53448 -43.5641 13.74
rradius 52.7328
rwrist -7.12011
rhand -21.8353 -49.1145
rfingers 7.12502
rthumb -175.432 460.955
lclavicle -1.97194e-013 1.27222e-014
lhumerus 2.56703 13.4492 15.2622
lradius 25.0159
lwrist 47.2922
lhand -33.2683 -12.4875
lfingers 7.12502
lthumb -6.4732 17.3936
rfemur -41.5999 -4.00914 36.268
rtibia 49.9145
rfoot 8.02046 -21.2687
rtoes 18.7857
lfemur 3.71036 32.7094 -3.72341
ltibia 88.6618
lfoot -6.05028 4.52094
ltoes -8.52736
2275
root -0.447197 14.8344 20.1367 848.748 33.9357 145.681
lowerback -17.2057 -11.5589 9.68926
upperback -12.4422 -15.284 3.1356
thorax -5.88532 -7.88455 -3.36284
lowerneck -12.9597 -10.154 0.236979
upperneck 28.1528 -12.5182 -5.95158
head 10.7458 -6.05252 -3.68387
rclavicle 1.24042e-013 -2.09917e-013
rhumerus -9.41803 -42.992 14.2507
rradius 53.4082
rwrist -7.13103
rhand -21.5666 -48.5809
rfingers 7.12502
rthumb -175.173 461.494
lclavicle 1.24042e-013 -2.09917e-013
lhumerus 3.18269 13.5983 15.6966
lradius 24.9471
lwrist 47.0333
lhand -32.9517 -12.0666
lfingers 7.12502
lthumb -6.16755 17.8236
rfemur -41.9393 -4.00002 35.493
rtibia 50.4097
rfoot 6.94143 -21.8418
rtoes 19.7976
lfemur 3.54919 32.7037 -4.45894
ltibia 88.7209
lfoot -6.27316 4.89582
ltoes -8.44507
2276
root -0.474576 14.8283 20.173 849.246 33.2892 145.968
lowerback -17.3138 -11.7038 9.11774
upperback -12.2438 -15.4328 3.4458
thorax -5.35464 -7.88319 -2.86278
lowerneck -12.9444 -9.74728 -0.711421
upperneck 27.8645 -12.0023 -4.79568
head 10.8198 -5.7785 -3.0706
rclavicle -7.63333e-014 4.45278e-014
rhumerus -9.33797 -43.6836 13.9803
rradius 54.321
rwrist -6.76712
rhand -21.0152 -48.5883
rfingers 7.12502
rthumb -174.64 461.5
lclavicle -7.63333e-014 4.45278e-014
lhumerus 3.03957 14.2865 16.1395
lradius 24.9096
lwrist 47.0182
lhand -32.9118 -12.0531
lfingers 7.12502
lthumb -6.12903 17.8383
rfemur -42.4285 -4.43782 35.2302
rtibia 51.046
rfoot 6.1947 -21.8857
rtoes 16.5086
lfemur 3.29037 32.8036 -4.67806
ltibia 88.8799
lfoot -6.48866 5.02051
ltoes -8.35497
2277
root -0.503574 14.8199 20.2061 849.615 32.5003 146.047
lowerback -17.3085 -11.7054 8.64448
upperback -12.1888 -15.3867 3.45983
thorax -5.14266 -7.82382 -2.64296
lowerneck -13.816 -9.50085 -0.474849
upperneck 29.0679 -11.3698 -5.91601
head 11.3659 -5.56746 -3.54257
rclavicle 8.90555e-014 4.77083e-014
rhumerus -9.46237 -43.7223 14.0238
rradius 54.9734
rwrist -6.55097
rhand -20.4815 -48.9787
rfingers 7.12502
rthumb -174.125 461.123
lclavicle 8.90555e-014 4.77083e-014
lhumerus 3.17852 14.3336 16.4798
lradius 24.8099
lwrist 47.5423
lhand -32.8057 -13.7554
lfingers 7.12502
lthumb -6.02658 16.1389
rfemur -42.6491 -4.15376 34.6106
rtibia 51.5196
rfoot 6.53639 -22.257
rtoes 16.2681
lfemur 3.07151 32.8825 -5.22724
ltibia 89.0083
lfoot -7.07309 5.17414
ltoes -8.09681
2278
root -0.521577 14.8761 20.2867 849.973 31.8311 146.087
lowerback -17.2254 -11.6566 8.26379
upperback -12.1953 -15.2657 3.50166
thorax -5.05294 -7.73328 -2.40549
lowerneck -13.024 -9.19566 -1.23417
upperneck 28.1852 -10.9937 -5.00339
head 11.0087 -5.38852 -2.96357
rclavicle -2.54444e-013 -6.04305e-014
rhumerus -9.58888 -43.603 14.1263
rradius 55.5622
rwrist -6.2313
rhand -20.4149 -48.3537
rfingers 7.12502
rthumb -174.061 461.75
lclavicle -2.54444e-013 -6.04305e-014
lhumerus 3.4721 15.1135 17.0105
lradius 24.3734
lwrist 47.9534
lhand -31.6972 -18.2112
lfingers 7.12502
lthumb -4.95638 11.7109
rfemur -43.1186 -4.26484 34.0066
rtibia 51.9533
rfoot 4.59418 -22.4523
rtoes 22.5345
lfemur 3.02817 33.046 -5.75225
ltibia 88.7925
lfoot -7.81409 5.38995
ltoes -7.47611
2279
root -0.543769 14.9092 20.3499 850.392 31.4406 146.315
lowerback -17.1495 -11.597 8.14737
upperback -12.1365 -15.1626 3.67526
thorax -4.92808 -7.65598 -2.17002
lowerneck -13.3113 -8.88784 -1.25671
upperneck 28.6574 -10.3615 -5.56478
head 11.2268 -5.16074 -3.12067
rclavicle -5.08889e-014 -7.31528e-014
rhumerus -9.54822 -43.674 14.0677
rradius 56.2644
rwrist -5.94499
rhand -20.5383 -47.5677
rfingers 7.12502
rthumb -174.18 462.532
lclavicle -5.08889e-014 -7.31528e-014
lhumerus 3.73746 15.2531 17.5985
lradius 24.4891
lwrist 46.8321
lhand -33.0445 -14.1486
lfingers 7.12502
lthumb -6.25713 15.739
rfemur -43.3314 -4.34532 33.8448
rtibia 52.1902
rfoot 3.99857 -22.2397
rtoes 24.8437
lfemur 2.99438 33.247 -5.80417
ltibia 88.7318
lfoot -8.66701 5.58867
ltoes -8.31243
2280
root -0.586268 14.8273 20.3346 850.725 30.9424 146.474
lowerback -17.1186 -11.5439 7.93861
upperback -12.0265 -15.0768 3.76525
thorax -4.72336 -7.58753 -1.99337
lowerneck -13.9439 -8.56253 -0.951053
upperneck 29.451 -9.65736 -6.50983
head 11.6016 -4.90936 -3.49687
rclavicle 1.97194e-013 -2.03555e-013
rhumerus -9.65035 -43.6659 13.9666
rradius 57.1419
rwrist -5.89671
rhand -20.3774 -47.9068
rfingers 7.12502
rthumb -174.024 462.197
lclavicle 1.97194e-013 -2.03555e-013
lhumerus 4.0043 15.8165 18.1891
lradius 24.469
lwrist 46.0814
lhand -33.2555 -12.0706
lfingers 7.12502
lthumb -6.46089 17.8109
rfemur -43.112 -4.70051 34.0874
rtibia 51.911
rfoot 8.40728 -20.8133
rtoes 12.4582
lfemur 2.7668 33.4157 -5.82474
ltibia 89.4036
lfoot -9.76427 5.62675
ltoes -8.90859
2281
root -0.612021 14.8393 20.3839 851.221 30.3372 146.62
lowerback -17.1952 -11.5138 7.68242
upperback -11.9994 -15.0061 3.86074
thorax -4.54547 -7.52368 -1.79883
lowerneck -13.7682 -8.26065 -1.00197
upperneck 29.3232 -9.07615 -6.92208
head 11.5192 -4.70807 -3.54632
rclavicle 2.54444e-014 3.18055e-015
rhumerus -9.82982 -43.3696 13.9103
rradius 58.079
rwrist -5.89391
rhand -20.2963 -48.3354
rfingers 7.12502
rthumb -173.946 461.771
lclavicle 2.54444e-014 3.18055e-015
lhumerus 4.2034 16.6835 18.853
lradius 24.3333
lwrist 45.2416
lhand -33.2267 -12.1154
lfingers 7.12502
lthumb -6.43309 17.7669
rfemur -43.3283 -4.72593 33.6678
rtibia 51.9527
rfoot 7.18615 -21.5481
rtoes 15.2073
lfemur 2.36662 33.5931 -6.23866
ltibia 89.5863
lfoot -10.2197 5.86856
ltoes -8.81333
2282
root -0.642479 14.8395 20.4235 851.807 29.6587 146.729
lowerback -17.3569 -11.4997 7.36005
upperback -12.0128 -14.9439 3.98157
thorax -4.34616 -7.45781 -1.5599
lowerneck -14.8505 -7.92987 -2.98527
upperneck 31.225 -8.63404 -4.55026
head 12.7859 -4.35261 -2.45338
rclavicle -1.59028e-014 -7.31528e-014
rhumerus -9.81769 -43.341 13.708
rradius 58.9814
rwrist -5.51731
rhand -20.3523 -48.0868
rfingers 7.12502
rthumb -174 462.018
lclavicle -1.59028e-014 -7.31528e-014
lhumerus 4.51504 18.1998 19.8864
lradius 24.0194
lwrist 43.7466
lhand -33.4951 -13.6654
lfingers 7.12502
lthumb -6.69214 16.2088
rfemur -43.7026 -4.88437 33.3201
rtibia 51.9564
rfoot 6.64645 -21.8683
rtoes 16.6686
lfemur 1.76418 33.7682 -6.85591
ltibia 89.8174
lfoot -10.727 6.46935
ltoes -10.9508
2283
root -0.674795 14.8404 20.4651 852.201 28.7425 146.882
lowerback -17.2697 -11.5913 6.78429
upperback -12.0027 -14.9894 4.05567
thorax -4.1989 -7.44144 -1.21164
lowerneck -15.0278 -7.68279 -1.67019
upperneck 31.3079 -7.77115 -7.28582
head 12.6517 -4.18663 -3.58339
rclavicle 1.08139e-013 7.95139e-014
rhumerus -9.53357 -43.009 13.3956
rradius 59.5451
rwrist -6.29465
rhand -22.2208 -46.9325
rfingers 7.12502
rthumb -175.804 463.129
lclavicle 1.08139e-013 7.95139e-014
lhumerus 4.98074 20.3849 21.3367
lradius 23.5399
lwrist 41.5802
lhand -33.6268 -15.4675
lfingers 7.12502
lthumb -6.81935 14.4026
rfemur -44.0354 -5.44008 32.8688
rtibia 52.3705
rfoot 6.45255 -21.7381
rtoes 18.4297
lfemur 1.3807 33.604 -7.57705
ltibia 89.8715
lfoot -11.7865 6.72591
ltoes -9.96157
